<?xml version="1.0" standalone="no"?>
<!DOCTYPE svg PUBLIC "-//W3C//DTD SVG 20010904//EN"
 "http://www.w3.org/TR/2001/REC-SVG-20010904/DTD/svg10.dtd">
<svg version="1.0" xmlns="http://www.w3.org/2000/svg"
 width="500.000000pt" height="500.000000pt" viewBox="0 0 500.000000 500.000000"
 preserveAspectRatio="xMidYMid meet">
<metadata>
Created by potrace 1.14, written by Peter Selinger 2001-2017
</metadata>
<g transform="translate(0.000000,500.000000) scale(0.100000,-0.100000)"
fill="#000000" stroke="none">
<path d="M3695 4088 c-50 -18 -107 -61 -140 -104 -114 -149 -67 -379 97 -470
45 -25 64 -29 128 -29 171 0 287 117 278 282 l-3 58 -135 0 -135 0 0 -50 0
-50 68 -3 c37 -2 67 -7 67 -13 0 -5 -7 -23 -15 -39 -33 -64 -138 -81 -196 -33
-153 129 -29 408 145 323 24 -11 47 -27 50 -35 9 -24 29 -16 69 31 l39 43 -25
25 c-46 45 -106 69 -187 72 -41 2 -88 -1 -105 -8z"/>
<path d="M1045 4077 c-3 -7 -4 -140 -3 -297 l3 -285 65 0 65 0 3 118 3 117 94
0 95 0 0 60 0 60 -95 0 -95 0 0 60 0 60 100 0 100 0 0 60 0 60 -165 0 c-124 0
-167 -3 -170 -13z"/>
<path d="M1450 3790 l0 -300 170 0 170 0 0 60 0 60 -100 0 -100 0 0 60 0 60
95 0 95 0 0 60 0 60 -95 0 -95 0 0 60 0 60 100 0 100 0 0 60 0 60 -170 0 -170
0 0 -300z"/>
<path d="M1875 4077 c-3 -7 -4 -140 -3 -297 l3 -285 168 -3 167 -2 0 60 0 60
-100 0 -100 0 0 60 0 60 95 0 95 0 0 60 0 60 -95 0 -95 0 0 60 0 60 100 0 100
0 0 60 0 60 -165 0 c-124 0 -167 -3 -170 -13z"/>
<path d="M2292 3793 l3 -298 168 -3 167 -2 0 60 0 60 -99 0 c-81 0 -100 3
-105 16 -3 9 -6 117 -6 240 l0 224 -65 0 -65 0 2 -297z"/>
<path d="M2700 3790 l0 -301 68 3 67 3 0 295 0 295 -67 3 -68 3 0 -301z"/>
<path d="M2922 3793 l3 -298 65 0 65 0 5 179 5 179 115 -179 116 -179 67 -3
67 -3 0 301 0 300 -65 0 -65 0 0 -173 c0 -96 -3 -176 -6 -180 -6 -6 -63 77
-178 261 l-58 92 -69 0 -69 0 2 -297z"/>
<path d="M332 3243 c-48 -17 -102 -65 -129 -116 -17 -30 -18 -96 -18 -1068 l0
-1036 30 -49 c34 -54 78 -88 134 -104 24 -6 786 -10 2216 -10 l2180 0 51 24
c58 27 110 85 124 138 7 23 9 405 8 1060 l-3 1023 -33 47 c-36 52 -70 79 -121
96 -25 9 -593 12 -2215 11 -1930 0 -2186 -2 -2224 -16z m2345 -74 c416 -56
787 -416 867 -839 83 -438 -58 -850 -379 -1109 -191 -154 -392 -221 -661 -221
-254 0 -444 59 -629 197 -194 144 -322 336 -392 589 -26 93 -28 112 -28 299 0
188 2 206 28 300 51 184 133 328 265 467 164 171 377 287 582 316 92 13 255
14 347 1z m-1947 -651 c57 -30 82 -65 88 -127 13 -142 -61 -220 -210 -221
l-68 0 0 -110 0 -110 -70 0 -70 0 0 295 0 295 143 0 c128 0 147 -2 187 -22z
m487 -4 c50 -37 73 -81 73 -141 0 -69 -23 -119 -71 -152 -21 -14 -38 -29 -39
-32 0 -4 43 -58 96 -120 l95 -114 -83 -3 c-95 -3 -77 -16 -191 135 -34 46 -65
83 -69 83 -5 0 -8 -49 -8 -110 l0 -110 -65 0 -65 0 0 296 0 295 149 -3 c133
-3 153 -5 178 -24z m2615 -177 c3 -172 6 -207 20 -230 34 -50 132 -45 157 9 7
16 11 97 11 224 l0 200 70 0 70 0 0 -212 c0 -125 -5 -230 -11 -253 -14 -51
-73 -110 -124 -124 -51 -14 -139 -14 -190 0 -59 16 -95 46 -119 98 -18 41 -21
68 -24 269 l-4 222 70 0 71 0 3 -203z m692 187 c71 -24 147 -104 170 -178 47
-148 -13 -298 -147 -368 -36 -19 -61 -23 -174 -26 l-133 -4 0 296 0 296 118 0
c83 0 133 -5 166 -16z"/>
<path d="M2380 2709 c-80 -15 -183 -74 -242 -137 -60 -65 -130 -196 -152 -285
-48 -188 -19 -433 69 -583 132 -226 451 -312 702 -189 122 60 224 197 268 360
26 93 31 275 11 376 -34 176 -149 350 -273 413 -101 51 -258 69 -383 45z"/>
<path d="M547 2433 c-4 -3 -7 -39 -7 -80 l0 -73 44 0 c58 0 96 29 96 75 0 41
-18 61 -68 75 -43 12 -56 12 -65 3z"/>
<path d="M1027 2433 c-4 -3 -7 -39 -7 -80 l0 -73 40 0 c69 0 111 63 80 120
-14 25 -97 50 -113 33z"/>
<path d="M4372 2248 l3 -173 43 1 c82 2 142 71 142 167 0 102 -65 177 -154
177 l-36 0 2 -172z"/>
</g>
</svg>
